<svg fill="#91E1F2" id="Layer_1" enable-background="new 0 0 510.918 510.918" height="512" viewBox="0 0 510.918 510.918" width="512" xmlns="http://www.w3.org/2000/svg"><g><circle cx="383.446" cy="247.459" r="8"/><circle cx="335.446" cy="199.459" r="8"/><circle cx="431.446" cy="199.459" r="8"/><path d="m510.881 371.415c-2.107-59.669-10.829-169.77-45.563-236.748-7.246-13.975-20.206-24.466-35.558-28.784-35.082-9.868-104.379-26.424-174.314-26.424-69.936 0-139.232 16.556-174.314 26.424-15.352 4.318-28.312 14.811-35.558 28.784-34.573 66.666-43.375 176.052-45.534 235.909-.565 15.662 4.869 31.079 15.585 42.515 11.09 11.836 26.17 18.368 42.351 18.368h47.759c10.859 0 21.508-3.735 29.986-10.52.263-.21.512-.437.747-.679l34.348-35.438c1.057-1.09.553-2.889-.903-3.318-21.232-6.25-36.397-26.806-34.266-50.471 2.085-23.16 20.917-41.691 44.105-43.436 28.129-2.117 51.695 20.171 51.695 47.861 0 1.982-.121 3.937-.355 5.857-.234 1.918 1.38 3.539 3.3 3.326 6.393-.709 13.488-1.183 21.055-1.183 7.566 0 14.661.473 21.053 1.183 1.91.212 3.539-1.394 3.305-3.301-.349-2.84-.448-5.756-.276-8.724 1.42-24.492 21.554-44.197 46.069-45.122 27.306-1.03 49.848 20.884 49.848 47.965 0 21.771-14.572 40.193-34.472 46.048-1.455.428-1.955 2.225-.9 3.314l34.351 35.441c.234.241.483.468.746.679 8.479 6.783 19.127 10.519 29.985 10.519h47.76c15.883 0 30.703-6.292 41.732-17.718 11.029-11.424 16.794-26.457 16.233-42.327zm-367.981-147.956h-5.454c-1.105 0-2 .895-2 2v5.454c0 13.427-10.987 24.769-24.412 24.542-13.044-.221-23.588-10.901-23.588-23.997v-6c0-1.105-.895-2-2-2h-5.454c-13.426 0-24.769-10.987-24.542-24.411.22-13.045 10.9-23.589 23.997-23.589h6c1.105 0 2-.895 2-2v-5.454c0-13.427 10.987-24.769 24.412-24.542 13.044.221 23.588 10.901 23.588 23.996v6c0 1.105.895 2 2 2h6c13.097 0 23.776 10.544 23.997 23.589.225 13.426-11.118 24.412-24.544 24.412zm96.541 48c-4.418 0-8.005-3.587-8.005-8.005s3.586-8.005 8.005-8.005 8.005 3.587 8.005 8.005-3.587 8.005-8.005 8.005zm16.009-23.995c-4.418 0-8.005-3.587-8.005-8.005s3.586-8.005 8.005-8.005c4.418 0 8.005 3.587 8.005 8.005s-3.587 8.005-8.005 8.005zm16 23.995c-4.418 0-8.005-3.587-8.005-8.005s3.587-8.005 8.005-8.005 8.005 3.587 8.005 8.005-3.587 8.005-8.005 8.005zm111.996-144c13.233 0 24 10.767 24 24s-10.767 24-24 24-24-10.767-24-24 10.766-24 24-24zm-48 96c-13.233 0-24-10.767-24-24s10.767-24 24-24 24 10.767 24 24-10.767 24-24 24zm48 48c-13.233 0-24-10.767-24-24s10.767-24 24-24 24 10.767 24 24-10.767 24-24 24zm48-48c-13.233 0-24-10.767-24-24s10.767-24 24-24 24 10.767 24 24-10.767 24-24 24z"/><circle cx="383.446" cy="151.459" r="8"/><path d="m143.446 191.459h-16c-4.418 0-8-3.582-8-8v-16c0-4.411-3.589-8-8-8s-8 3.589-8 8v16c0 4.418-3.582 8-8 8h-16c-4.411 0-8 3.589-8 8s3.589 8 8 8h16c4.418 0 8 3.582 8 8v16c0 4.411 3.589 8 8 8s8-3.589 8-8v-16c0-4.418 3.582-8 8-8h16c4.411 0 8-3.589 8-8s-3.589-8-8-8z"/><circle cx="327.446" cy="335.459" r="32"/><circle cx="183.446" cy="335.459" r="32"/></g></svg>