<svg width="41" height="39" viewBox="0 0 41 39"  xmlns="http://www.w3.org/2000/svg">
<path d="M20.5 0C9.17375 0 0 8.95291 0 19.9948C0 28.8307 5.87325 36.3237 14.0169 38.9655C15.0419 39.1537 15.4177 38.5348 15.4177 38.0041C15.4177 37.5293 15.4006 36.2712 15.3921 34.6044C9.68967 35.8099 8.487 31.9219 8.487 31.9219C7.55425 29.6141 6.20638 28.9969 6.20638 28.9969C4.34942 27.7574 6.34987 27.7828 6.34987 27.7828C8.40842 27.9219 9.48979 29.843 9.48979 29.843C11.3177 32.9002 14.2885 32.0168 15.4604 31.5064C15.6449 30.2127 16.1728 29.3326 16.7588 28.8324C12.206 28.3322 7.421 26.6129 7.421 18.952C7.421 16.7698 8.21537 14.9859 9.53079 13.5871C9.30017 13.0818 8.60829 11.0487 9.71017 8.29501C9.71017 8.29501 11.427 7.75919 15.3477 10.345C16.9877 9.90076 18.7302 9.68033 20.4727 9.67016C22.2152 9.68033 23.9577 9.90076 25.5977 10.345C29.4927 7.75919 31.2095 8.29501 31.2095 8.29501C32.3114 11.0487 31.6195 13.0818 31.4145 13.5871C32.7214 14.9859 33.5158 16.7698 33.5158 18.952C33.5158 26.6332 28.7239 28.3237 24.1627 28.8155C24.8802 29.4157 25.5464 30.6417 25.5464 32.5153C25.5464 35.191 25.5208 37.3411 25.5208 37.9905C25.5208 38.5145 25.8795 39.1402 26.9302 38.9401C35.1319 36.3152 41 28.8172 41 19.9948C41 8.95291 31.8211 0 20.5 0Z"/>
</svg>
