<svg width="18" height="20" viewBox="0 0 18 20"  xmlns="http://www.w3.org/2000/svg">
<path fill-rule="evenodd" clip-rule="evenodd" d="M12.3071 14.5433L16.7729 10.091C18.0029 8.86474 18.0029 6.87656 16.7729 5.6503L12.3295 1.22035C11.0995 -0.00591362 9.10525 -0.00591397 7.87525 1.22035L1.19596 7.87939C-0.0218076 9.09346 -0.0356783 11.0576 1.16482 12.2886L7.75823 19.0498C8.99773 20.3209 11.0462 20.3177 12.2816 19.0427L14.4344 16.8211C14.4774 16.7768 14.4768 16.7064 14.4331 16.6628L12.5433 14.7788L12.3071 14.5433ZM12.3071 14.5433L9.97348 12.2943C9.95521 12.2767 9.94488 12.2524 9.94488 12.227C9.94488 12.2022 9.95476 12.1784 9.97235 12.1608L14.0394 8.10616C14.1697 7.97621 14.1697 7.7651 14.0394 7.63515L10.1024 3.71008C10.0153 3.62329 9.87445 3.62329 9.7874 3.71008L3.80315 9.67618C3.58591 9.89276 3.58591 10.2446 3.80315 10.4612L9.96786 16.6072C10.0036 16.6428 10.0519 16.6628 10.1024 16.6628C10.1528 16.6628 10.2012 16.6428 10.2369 16.6072L12.3071 14.5433Z" />
</svg>
